<?xml version="1.0" encoding="UTF-8" standalone="no" ?>
<!DOCTYPE svg PUBLIC "-//W3C//DTD SVG 1.1//EN" "http://www.w3.org/Graphics/SVG/1.1/DTD/svg11.dtd">
<svg xmlns="http://www.w3.org/2000/svg" xmlns:xlink="http://www.w3.org/1999/xlink" version="1.1" width="1200" height="900" viewBox="0 0 1200 900" xml:space="preserve">
<desc>Created with Fabric.js 4.2.0</desc>
<defs>
</defs>
<rect x="0" y="0" width="100%" height="100%" fill="transparent"></rect>
<g transform="matrix(1 0 0 1 600 450)" id="ae3270f6-ac0e-4763-b8e2-e62b94cc4925"  >
<rect style="stroke: none; stroke-width: 1; stroke-dasharray: none; stroke-linecap: butt; stroke-dashoffset: 0; stroke-linejoin: miter; stroke-miterlimit: 4; fill: rgb(255,255,255); fill-opacity: 0; fill-rule: nonzero; opacity: 1;" vector-effect="non-scaling-stroke"  x="-600" y="-450" rx="0" ry="0" width="1200" height="900" />
</g>
<g transform="matrix(Infinity NaN NaN Infinity 0 0)" id="d940446d-d00b-4668-9cef-40b806595963"  >
</g>
<g transform="matrix(3.15 0 0 3.15 600 450)"  >
<g style="" vector-effect="non-scaling-stroke"   >
		<g transform="matrix(1 0 0 1 -8.9 54.22)" id="path2887"  >
<path style="stroke: rgb(0,0,0); stroke-width: 1; stroke-dasharray: none; stroke-linecap: butt; stroke-dashoffset: 0; stroke-linejoin: miter; stroke-miterlimit: 4; fill: rgb(69,172,90); fill-rule: nonzero; opacity: 1;" vector-effect="non-scaling-stroke"  transform=" translate(-326.65, -391.56)" d="M 230.31 398.87 C 241.483 386.098 265.567 387.371 273.913 372.596 C 278.49580000000003 364.4841 270.8515 353.445 273.913 344.645 C 275.7873 339.2578 279.4413 333.79699999999997 284.534 331.229 C 299.683 323.5899 315.695 331.98706 332.609 330.66998 C 344.77599999999995 329.72263000000004 360.366 320.65698000000003 371.74 325.07978 C 381.1021 328.72028 388.98400000000004 338.22678 391.306 347.99978000000004 C 393.4786 357.14568 386.27479999999997 373.71478 386.27479999999997 375.95078000000007 C 386.27479999999997 378.1868800000001 395.1633 393.47578000000004 405.84079999999994 399.42978000000005 C 412.2212999999999 402.98748000000006 425.24179999999996 400.2946400000001 428.76079999999996 406.69698000000005 C 434.17869999999994 416.55638000000005 425.62409999999994 424.69698000000005 420.37559999999996 434.6479800000001 C 417.6905 439.7386800000001 410.41659999999996 449.37698000000006 405.28259999999995 451.97798000000006 C 393.38559999999995 458.00338000000005 378.82559999999995 445.29578000000004 365.59259999999995 446.94678000000005 C 354.46759999999995 448.33478 345.49859999999995 459.32678000000004 334.28759999999994 459.24478000000005 C 322.00359999999995 459.15498 312.4665999999999 444.90978000000007 300.1875999999999 445.26978 C 289.85759999999993 445.57235000000003 282.4765999999999 460.08378000000005 272.2365999999999 458.68578 C 250.6475999999999 455.73908 227.8305999999999 436.89778 223.0435999999999 415.64178000000004 C 221.7049999999999 409.69818000000004 226.2994999999999 403.45678000000004 230.31079999999992 398.87178000000006 z" stroke-linecap="round" />
</g>
		<g transform="matrix(1 0 0 1 -111.44 -15.89)" id="path3737"  >
<path style="stroke: none; stroke-width: 1; stroke-dasharray: none; stroke-linecap: butt; stroke-dashoffset: 0; stroke-linejoin: miter; stroke-miterlimit: 4; fill: rgb(69,172,90); fill-rule: nonzero; opacity: 1;" vector-effect="non-scaling-stroke"  transform=" translate(-224.11, -321.44)" d="M 249.32 323.68 C 252.67409999999998 353.08 236.873 360.296 222.208 360.296 C 207.543 360.296 198.45 346.932 198.45 324.239 C 198.45 301.54699999999997 212.57399999999998 282.592 227.23899999999998 282.592 C 241.90399999999997 282.592 249.31999999999996 300.988 249.31999999999996 323.68 z" stroke-linecap="round" />
</g>
		<g transform="matrix(1 0 0 1 40.55 -79.34)" id="path3737-0"  >
<path style="stroke: none; stroke-width: 1; stroke-dasharray: none; stroke-linecap: butt; stroke-dashoffset: 0; stroke-linejoin: miter; stroke-miterlimit: 4; fill: rgb(69,172,90); fill-rule: nonzero; opacity: 1;" vector-effect="non-scaling-stroke"  transform=" translate(-376.1, -258)" d="M 402.77 255.2 C 405.0061 285.71799999999996 390.882 296.288 376.217 296.288 C 361.55199999999996 296.288 346.31 282.92400000000004 349.664 255.20000000000002 C 352.3895 232.67200000000003 361.55199999999996 219.70200000000003 376.217 219.70200000000003 C 390.882 219.70200000000003 402.77 232.50700000000003 402.77 255.20000000000002 z" stroke-linecap="round" />
</g>
		<g transform="matrix(1 0 0 1 112.1 -17.55)" id="path3737-6"  >
<path style="stroke: none; stroke-width: 1; stroke-dasharray: none; stroke-linecap: butt; stroke-dashoffset: 0; stroke-linejoin: miter; stroke-miterlimit: 4; fill: rgb(69,172,90); fill-rule: nonzero; opacity: 1;" vector-effect="non-scaling-stroke"  transform=" translate(-447.65, -319.78)" d="M 472.65 326.41 C 472.65 347.149 462.431 357.89700000000005 447.774 358.34200000000004 C 414.102 359.3638 424.016 333.86600000000004 424.016 313.12700000000007 C 424.016 292.3880000000001 431.9912 281.19500000000005 446.656 281.19500000000005 C 461.3208 281.19500000000005 472.65 305.67100000000005 472.65 326.4100000000001 z" stroke-linecap="round" />
</g>
		<g transform="matrix(1 0 0 1 -39.27 -81.47)" id="path3737-0-3"  >
<path style="stroke: none; stroke-width: 1; stroke-dasharray: none; stroke-linecap: butt; stroke-dashoffset: 0; stroke-linejoin: miter; stroke-miterlimit: 4; fill: rgb(69,172,90); fill-rule: nonzero; opacity: 1;" vector-effect="non-scaling-stroke"  transform=" translate(-296.28, -255.86)" d="M 322.95 253.12 C 325.1861 285.19 311.062 296.297 296.397 296.297 C 281.73199999999997 296.297 266.49 282.25300000000004 269.844 253.12000000000003 C 272.5695 229.44700000000003 280.614 219.34200000000004 296.397 215.81800000000004 C 310.742 212.61460000000005 322.95 229.27500000000003 322.95 253.12000000000003 z" stroke-linecap="round" />
</g>
</g>
</g>
</svg>